<svg width="24" height="24" viewBox="0 0 24 24" fill="none" xmlns="http://www.w3.org/2000/svg">
<path d="M23.953 4.57016C23.0545 4.96577 22.1026 5.2269 21.128 5.34516C22.1541 4.72841 22.9224 3.76121 23.291 2.62216C22.3221 3.1886 21.2651 3.5888 20.164 3.80616C19.8636 2.98491 19.3497 2.25857 18.6753 1.70192C18.0009 1.14527 17.1903 0.778429 16.327 0.63916C15.0203 0.640747 13.7676 1.16039 12.8434 2.08417C11.9193 3.00795 11.3991 4.26048 11.397 5.56716C11.397 5.95716 11.43 6.33216 11.511 6.69116C9.62758 6.59967 7.78214 6.12805 6.08575 5.30469C4.38937 4.48133 2.87711 3.32326 1.64 1.90016C1.0112 2.98371 0.818677 4.26607 1.10159 5.4865C1.38449 6.70692 2.12159 7.77378 3.163 8.47016C2.37938 8.44707 1.61281 8.23579 0.928 7.85416V7.91416C0.92831 9.05096 1.3218 10.1527 2.04173 11.0324C2.76167 11.9122 3.76373 12.5159 4.878 12.7412C4.15284 12.9388 3.39201 12.9675 2.654 12.8252C2.9686 13.8036 3.58111 14.6592 4.40588 15.2724C5.23065 15.8856 6.22644 16.2257 7.254 16.2452C5.30769 17.675 2.90487 18.3421 0.5 18.1202C2.75065 19.5683 5.37173 20.3354 8.048 20.3292C17.101 20.3292 22.048 12.8332 22.048 6.34316C22.048 6.13316 22.048 5.92316 22.032 5.71316C22.7287 5.4151 23.389 5.03831 24 4.59016L23.953 4.57016Z" fill="#99A1AF"/>
</svg>
